<svg xmlns="http://www.w3.org/2000/svg" width="1280" height="470" viewBox="0 0 1280 470" role="img" aria-label="Partitura da aula 1">
  <rect width="1280" height="470" fill="#ffffff"/>
  <g stroke="#111111" stroke-width="2" fill="none" stroke-linecap="round">
    <path d="M28 36c-18 10-26 30-18 54 7 22 27 22 34 7 6-11-2-24-16-19"/>
    <path d="M41 21c13 47-15 99-2 142"/>
    <path d="M57 60h24"/>
    <path d="M66 48v28"/>
  </g>
  <g stroke="#222" stroke-width="2">
    <line x1="18" y1="60" x2="1270" y2="60"/>
    <line x1="18" y1="84" x2="1270" y2="84"/>
    <line x1="18" y1="108" x2="1270" y2="108"/>
    <line x1="18" y1="132" x2="1270" y2="132"/>
    <line x1="18" y1="156" x2="1270" y2="156"/>

    <line x1="18" y1="248" x2="1270" y2="248"/>
    <line x1="18" y1="272" x2="1270" y2="272"/>
    <line x1="18" y1="296" x2="1270" y2="296"/>
    <line x1="18" y1="320" x2="1270" y2="320"/>
    <line x1="18" y1="344" x2="1270" y2="344"/>
  </g>
  <g stroke="#111111" stroke-width="2">
    <line x1="110" y1="60" x2="110" y2="156"/>
    <line x1="260" y1="60" x2="260" y2="156"/>
    <line x1="520" y1="60" x2="520" y2="156"/>
    <line x1="800" y1="60" x2="800" y2="156"/>
    <line x1="1040" y1="60" x2="1040" y2="156"/>
    <line x1="1260" y1="60" x2="1260" y2="156"/>
    <line x1="1268" y1="60" x2="1268" y2="156" stroke-width="4"/>

    <line x1="110" y1="248" x2="110" y2="344"/>
    <line x1="260" y1="248" x2="260" y2="344"/>
    <line x1="520" y1="248" x2="520" y2="344"/>
    <line x1="780" y1="248" x2="780" y2="344"/>
    <line x1="1030" y1="248" x2="1030" y2="344"/>
    <line x1="1260" y1="248" x2="1260" y2="344"/>
    <line x1="1268" y1="248" x2="1268" y2="344" stroke-width="4"/>
  </g>
  <g fill="#ffffff" stroke="#111111" stroke-width="3">
    <ellipse cx="78" cy="72" rx="13" ry="9"/>
    <ellipse cx="320" cy="72" rx="13" ry="9"/>
    <ellipse cx="840" cy="72" rx="13" ry="9"/>
    <ellipse cx="1088" cy="72" rx="13" ry="9"/>
    <ellipse cx="1180" cy="72" rx="13" ry="9"/>

    <ellipse cx="610" cy="288" rx="13" ry="9"/>
    <ellipse cx="900" cy="288" rx="13" ry="9"/>
    <ellipse cx="1150" cy="288" rx="13" ry="9"/>
  </g>
  <g fill="#111111" stroke="#111111" stroke-width="3">
    <ellipse cx="184" cy="96" rx="10" ry="7"/>
    <line x1="194" y1="96" x2="194" y2="146"/>
    <ellipse cx="256" cy="96" rx="10" ry="7"/>
    <line x1="266" y1="96" x2="266" y2="146"/>
    <ellipse cx="336" cy="96" rx="10" ry="7"/>
    <line x1="346" y1="96" x2="346" y2="146"/>
    <ellipse cx="414" cy="96" rx="10" ry="7"/>
    <line x1="424" y1="96" x2="424" y2="146"/>

    <ellipse cx="600" cy="96" rx="10" ry="7"/>
    <line x1="610" y1="96" x2="610" y2="146"/>
    <ellipse cx="680" cy="96" rx="10" ry="7"/>
    <line x1="690" y1="96" x2="690" y2="146"/>
    <ellipse cx="758" cy="96" rx="10" ry="7"/>
    <line x1="768" y1="96" x2="768" y2="146"/>
    <ellipse cx="836" cy="96" rx="10" ry="7"/>
    <line x1="846" y1="96" x2="846" y2="146"/>

    <ellipse cx="170" cy="284" rx="10" ry="7"/>
    <line x1="180" y1="284" x2="180" y2="334"/>
    <ellipse cx="242" cy="284" rx="10" ry="7"/>
    <line x1="252" y1="284" x2="252" y2="334"/>
    <ellipse cx="320" cy="284" rx="10" ry="7"/>
    <line x1="330" y1="284" x2="330" y2="334"/>
    <ellipse cx="396" cy="284" rx="10" ry="7"/>
    <line x1="406" y1="284" x2="406" y2="334"/>

    <ellipse cx="490" cy="284" rx="10" ry="7"/>
    <line x1="500" y1="284" x2="500" y2="334"/>
    <ellipse cx="538" cy="284" rx="10" ry="7"/>
    <line x1="548" y1="284" x2="548" y2="334"/>
    <ellipse cx="586" cy="284" rx="10" ry="7"/>
    <line x1="596" y1="284" x2="596" y2="334"/>
    <ellipse cx="634" cy="284" rx="10" ry="7"/>
    <line x1="644" y1="284" x2="644" y2="334"/>
    <line x1="486" y1="334" x2="638" y2="334"/>

    <ellipse cx="700" cy="284" rx="10" ry="7"/>
    <line x1="710" y1="284" x2="710" y2="334"/>
    <ellipse cx="748" cy="284" rx="10" ry="7"/>
    <line x1="758" y1="284" x2="758" y2="334"/>
    <ellipse cx="796" cy="284" rx="10" ry="7"/>
    <line x1="806" y1="284" x2="806" y2="334"/>
    <ellipse cx="844" cy="284" rx="10" ry="7"/>
    <line x1="854" y1="284" x2="854" y2="334"/>
    <line x1="696" y1="334" x2="848" y2="334"/>

    <ellipse cx="720" cy="284" rx="10" ry="7" opacity="0"/>

    <ellipse cx="718" cy="284" rx="10" ry="7" opacity="0"/>

    <ellipse cx="980" cy="284" rx="10" ry="7"/>
    <line x1="990" y1="284" x2="990" y2="334"/>
    <ellipse cx="1060" cy="284" rx="10" ry="7"/>
    <line x1="1070" y1="284" x2="1070" y2="334"/>
    <ellipse cx="1110" cy="284" rx="10" ry="7"/>
    <line x1="1120" y1="284" x2="1120" y2="334"/>
    <line x1="1056" y1="334" x2="1114" y2="334"/>
  </g>
  <g fill="#111111" stroke="#111111" stroke-width="3">
    <ellipse cx="820" cy="284" rx="10" ry="7"/>
    <line x1="830" y1="284" x2="830" y2="334"/>
    <ellipse cx="900" cy="284" rx="10" ry="7"/>
    <line x1="910" y1="284" x2="910" y2="334"/>
    <ellipse cx="950" cy="284" rx="10" ry="7"/>
    <line x1="960" y1="284" x2="960" y2="334"/>
    <line x1="896" y1="334" x2="954" y2="334"/>
  </g>
</svg>